<?xml version="1.0" encoding="utf-8"?>
<!-- Generator: Adobe Illustrator 27.5.0, SVG Export Plug-In . SVG Version: 6.00 Build 0)  -->
<svg version="1.1" id="Layer_1" xmlns="http://www.w3.org/2000/svg" xmlns:xlink="http://www.w3.org/1999/xlink" x="0px" y="0px"
	 viewBox="0 0 4000 4000" style="enable-background:new 0 0 4000 4000;" xml:space="preserve">
<rect x="-0.5" y="-0.5" style="fill:#272a36;stroke:#000000;stroke-miterlimit:10;" width="4000" height="4000"/>
<g>
	<path style="fill-rule:evenodd;clip-rule:evenodd;fill:#003780;" d="M2554.599,1533.681l96.918-563.466
		c0,0-494.094,379.949-211.292,890.204C2483.066,1679.921,2554.599,1533.681,2554.599,1533.681"/>
	<g>
		<defs>
			<path id="SVGID_1_" d="M2554.599,1533.681l96.918-563.466c-105.559,132.322-282.573,434.202-162.323,724.494
				C2522.979,1598.335,2554.599,1533.681,2554.599,1533.681"/>
		</defs>
		<clipPath id="SVGID_00000069371376698176024660000012772770853310598052_">
			<use xlink:href="#SVGID_1_"  style="overflow:visible;"/>
		</clipPath>
		
			<linearGradient id="SVGID_00000160191750570516240330000008503171432254889884_" gradientUnits="userSpaceOnUse" x1="2609.8523" y1="987.905" x2="2459.0447" y2="1509.4948">
			<stop  offset="0" style="stop-color:#FFCE4B"/>
			<stop  offset="1" style="stop-color:#F452CB"/>
		</linearGradient>
		
			<rect x="2368.944" y="970.214" style="clip-path:url(#SVGID_00000069371376698176024660000012772770853310598052_);fill:url(#SVGID_00000160191750570516240330000008503171432254889884_);" width="282.573" height="724.494"/>
	</g>
	<path style="fill-rule:evenodd;clip-rule:evenodd;fill:#003780;" d="M2460.144,1760.835l-184.353-541.205
		c0,0-227.991,515.336,172.938,834.963c3.405-56.303,12.289-112.953,24.075-167.077
		C2462.366,1811.56,2460.144,1760.835,2460.144,1760.835"/>
	<g>
		<defs>
			<path id="SVGID_00000096044030401384315880000011445674359647168914_" d="M2460.144,1760.835l-184.353-541.205
				c-28.853,163.456-40.043,502.938,190.009,702.217c2.191-11.539,4.535-22.993,7.005-34.337
				C2462.367,1811.556,2460.144,1760.835,2460.144,1760.835"/>
		</defs>
		<clipPath id="SVGID_00000155862185758124893820000002123093494022239149_">
			<use xlink:href="#SVGID_00000096044030401384315880000011445674359647168914_"  style="overflow:visible;"/>
		</clipPath>
		
			<linearGradient id="SVGID_00000039125393966477816340000005886066166373091755_" gradientUnits="userSpaceOnUse" x1="2276.5381" y1="1304.9485" x2="2419.3416" y2="1793.1938">
			<stop  offset="0" style="stop-color:#F452CB"/>
			<stop  offset="1" style="stop-color:#0928D8"/>
		</linearGradient>
		
			<rect x="2235.748" y="1219.63" style="clip-path:url(#SVGID_00000155862185758124893820000002123093494022239149_);fill:url(#SVGID_00000039125393966477816340000005886066166373091755_);" width="237.057" height="702.217"/>
	</g>
	<path style="fill-rule:evenodd;clip-rule:evenodd;fill:#003780;" d="M2426.693,1932.44l-359.434-444.63
		c0,0-33.305,511.087,385.061,699.182c-8.08-62.676-5.993-128.914,2.221-194.203
		C2436.341,1955.562,2426.693,1932.44,2426.693,1932.44"/>
	<g>
		<defs>
			<path id="SVGID_00000168116768427491459230000009110395612571913111_" d="M2426.693,1932.44l-359.434-444.63
				c27.811,155.652,125.672,455.754,380.909,577.107c1.164-24.023,3.355-48.142,6.374-72.131
				C2436.341,1955.56,2426.693,1932.44,2426.693,1932.44"/>
		</defs>
		<clipPath id="SVGID_00000098220221055975709670000000808825759559674246_">
			<use xlink:href="#SVGID_00000168116768427491459230000009110395612571913111_"  style="overflow:visible;"/>
		</clipPath>
		
			<linearGradient id="SVGID_00000034791952252411048070000014680792911528137653_" gradientUnits="userSpaceOnUse" x1="2054.7664" y1="1575.2727" x2="2468.2876" y2="1978.6748">
			<stop  offset="0" style="stop-color:#4EEB90"/>
			<stop  offset="1" style="stop-color:#00478F"/>
		</linearGradient>
		
			<rect x="2067.26" y="1487.81" style="clip-path:url(#SVGID_00000098220221055975709670000000808825759559674246_);fill:url(#SVGID_00000034791952252411048070000014680792911528137653_);" width="387.283" height="577.107"/>
	</g>
	<path style="fill-rule:evenodd;clip-rule:evenodd;fill:#003780;" d="M2413.559,2067.991l-484.783-303.107
		c0,0,126.866,463.4,549.95,530.121c-8.782-22.931-15.51-46.886-20.448-71.567c-7.721-38.577-11.065-78.93-11.062-119.919
		C2425.597,2081.51,2413.559,2067.991,2413.559,2067.991"/>
	<g>
		<defs>
			<path id="SVGID_00000021080312846686924220000013571553239507778700_" d="M2413.559,2067.991l-484.783-303.107
				c74.718,133.893,255.997,374.741,523.021,417.909c-3.15-25.941-4.582-52.473-4.582-79.277
				C2425.592,2081.503,2413.559,2067.991,2413.559,2067.991"/>
		</defs>
		<clipPath id="SVGID_00000181076470767850718430000009175482584874295193_">
			<use xlink:href="#SVGID_00000021080312846686924220000013571553239507778700_"  style="overflow:visible;"/>
		</clipPath>
		
			<linearGradient id="SVGID_00000053526402429555437940000012165308733538880417_" gradientUnits="userSpaceOnUse" x1="2452.8623" y1="2159.4128" x2="1964.0425" y2="1813.9417">
			<stop  offset="0" style="stop-color:#008A80"/>
			<stop  offset="1" style="stop-color:#AFF022"/>
		</linearGradient>
		
			<rect x="1928.776" y="1764.884" style="clip-path:url(#SVGID_00000181076470767850718430000009175482584874295193_);fill:url(#SVGID_00000053526402429555437940000012165308733538880417_);" width="523.021" height="417.909"/>
	</g>
	<path style="fill-rule:evenodd;clip-rule:evenodd;fill:#003780;" d="M2454.671,2203.31l-456.237-112.008
		c0,0,202.784,305.968,530.843,294.264c-36.641-46.989-59.055-102.433-70.999-162.129
		C2456.945,2216.78,2455.748,2210.068,2454.671,2203.31"/>
	<g>
		<defs>
			<path id="SVGID_00000094603256919996952510000015341645552030207395_" d="M2454.671,2203.31l-456.237-112.008
				c89.046,81.925,274.749,212.824,482.009,208.102c-9.627-24.261-16.91-49.703-22.165-75.967
				C2456.945,2216.78,2455.748,2210.068,2454.671,2203.31"/>
		</defs>
		<clipPath id="SVGID_00000004533403614803010990000005035488375101662893_">
			<use xlink:href="#SVGID_00000094603256919996952510000015341645552030207395_"  style="overflow:visible;"/>
		</clipPath>
		
			<linearGradient id="SVGID_00000064336181786811172130000003685182379695584945_" gradientUnits="userSpaceOnUse" x1="2487.7217" y1="2326.6277" x2="1972.2046" y2="2058.9624">
			<stop  offset="0" style="stop-color:#0286CF"/>
			<stop  offset="1" style="stop-color:#51F4E9"/>
		</linearGradient>
		
			<rect x="1998.434" y="2091.302" style="clip-path:url(#SVGID_00000004533403614803010990000005035488375101662893_);fill:url(#SVGID_00000064336181786811172130000003685182379695584945_);" width="482.009" height="212.825"/>
	</g>
	<path style="fill-rule:evenodd;clip-rule:evenodd;fill:#003780;" d="M2485.9,2312.449l-340.562,42.309
		c0,0,219.863,157.327,464.344,104.224C2551.128,2420.942,2511.402,2370.382,2485.9,2312.449"/>
	<g>
		<defs>
			<path id="SVGID_00000102543321781755262690000005178792821139117715_" d="M2485.9,2312.449l-340.562,42.309
				c86.644,34.549,243.664,76.484,395.851,45.217C2518.013,2373.561,2499.835,2344.105,2485.9,2312.449"/>
		</defs>
		<clipPath id="SVGID_00000071561190597162839390000017671686902988302465_">
			<use xlink:href="#SVGID_00000102543321781755262690000005178792821139117715_"  style="overflow:visible;"/>
		</clipPath>
		
			<linearGradient id="SVGID_00000010300164772224105320000001177302796227245186_" gradientUnits="userSpaceOnUse" x1="2636.6404" y1="2405.6077" x2="2111.4548" y2="2345.1694">
			<stop  offset="0" style="stop-color:#0286CF"/>
			<stop  offset="1" style="stop-color:#51F4E9"/>
		</linearGradient>
		
			<rect x="2145.338" y="2312.449" style="clip-path:url(#SVGID_00000071561190597162839390000017671686902988302465_);fill:url(#SVGID_00000010300164772224105320000001177302796227245186_);" width="395.851" height="118.793"/>
	</g>
	<g>
		<defs>
			<path id="SVGID_00000101784219306500039640000003388302995247211445_" d="M2529.516,2194.96
				c-53.563-108.833-72.646-305.657,25.083-661.279c0,0-71.533,146.24-114.374,326.738c-27.585,116.218-43.276,246.64-20.318,361.37
				c21.095,105.418,74.819,197.589,181.924,253.325c8.109-8.322,15.763-16.637,22.988-24.811
				c31.418-35.538,81.916-100.255,107.691-121.457C2732.51,2328.847,2600.626,2339.449,2529.516,2194.96"/>
		</defs>
		<clipPath id="SVGID_00000033370228893856457840000009809638093998223491_">
			<use xlink:href="#SVGID_00000101784219306500039640000003388302995247211445_"  style="overflow:visible;"/>
		</clipPath>
		
			<linearGradient id="SVGID_00000050662844829173181090000008264418931710198461_" gradientUnits="userSpaceOnUse" x1="2500.7285" y1="2446.5181" x2="2611.0024" y2="1684.7471">
			<stop  offset="0" style="stop-color:#0012AF"/>
			<stop  offset="1" style="stop-color:#DA34C4"/>
		</linearGradient>
		
			<rect x="2396.95" y="1533.681" style="clip-path:url(#SVGID_00000033370228893856457840000009809638093998223491_);fill:url(#SVGID_00000050662844829173181090000008264418931710198461_);" width="335.561" height="941.433"/>
	</g>
	<path style="fill-rule:evenodd;clip-rule:evenodd;fill:#003780;" d="M1801.627,3029.043l-451.148,431.918
		c0,0,680.762-12.737,763.846-644.586C1959.448,2947.071,1801.627,3029.043,1801.627,3029.043"/>
	<g>
		<defs>
			<path id="SVGID_00000003794353093682259510000006850919576404617875_" d="M1801.627,3029.043l-451.148,431.918
				c178.666-47.645,530.232-197.789,613.192-530.858C1871.396,2992.799,1801.627,3029.043,1801.627,3029.043"/>
		</defs>
		<clipPath id="SVGID_00000024715736789319301610000017954140939611034271_">
			<use xlink:href="#SVGID_00000003794353093682259510000006850919576404617875_"  style="overflow:visible;"/>
		</clipPath>
		
			<linearGradient id="SVGID_00000156559983566524525030000012085572315730143671_" gradientUnits="userSpaceOnUse" x1="1903.5455" y1="3052.6367" x2="1270.8353" y2="3419.4619">
			<stop  offset="0" style="stop-color:#0286CF"/>
			<stop  offset="1" style="stop-color:#51F4E9"/>
		</linearGradient>
		
			<rect x="1350.479" y="2930.103" style="clip-path:url(#SVGID_00000024715736789319301610000017954140939611034271_);fill:url(#SVGID_00000156559983566524525030000012085572315730143671_);" width="613.192" height="530.859"/>
	</g>
	<path style="fill-rule:evenodd;clip-rule:evenodd;fill:#003780;" d="M1939.744,3022.198l-185.115,503.731
		c0,0,520.628-266.896,346.161-785.956C2030.603,2899.333,1939.744,3022.198,1939.744,3022.198"/>
	<g>
		<defs>
			<path id="SVGID_00000111888161498670816310000012774190089358414764_" d="M1939.744,3022.198l-185.115,503.731
				c119.909-104.24,334.566-352.884,272.826-641.287C1979.909,2967.877,1939.744,3022.198,1939.744,3022.198"/>
		</defs>
		<clipPath id="SVGID_00000154402788446211801640000002327885701074718358_">
			<use xlink:href="#SVGID_00000111888161498670816310000012774190089358414764_"  style="overflow:visible;"/>
		</clipPath>
		
			<linearGradient id="SVGID_00000008132898588390168450000013470551731286427830_" gradientUnits="userSpaceOnUse" x1="2048.6128" y1="3016.2085" x2="1698.7919" y2="3538.252">
			<stop  offset="0" style="stop-color:#0286CF"/>
			<stop  offset="1" style="stop-color:#51F4E9"/>
		</linearGradient>
		
			<rect x="1754.629" y="2884.642" style="clip-path:url(#SVGID_00000154402788446211801640000002327885701074718358_);fill:url(#SVGID_00000008132898588390168450000013470551731286427830_);" width="334.566" height="641.287"/>
	</g>
	<path style="fill-rule:evenodd;clip-rule:evenodd;fill:#003780;" d="M2045.845,2937.279l26.307,467.851
		c0,0,324.674-394.388,4.899-749.851C2076.057,2807.318,2045.845,2937.279,2045.845,2937.279"/>
	<g>
		<defs>
			<path id="SVGID_00000081625207031353265430000001495728403279071367_" d="M2045.845,2937.279l26.307,467.851
				c59.949-125.108,145.759-398.785-3.711-608.494C2059.198,2879.823,2045.845,2937.279,2045.845,2937.279"/>
		</defs>
		<clipPath id="SVGID_00000074416603656823866320000007776051719501054360_">
			<use xlink:href="#SVGID_00000081625207031353265430000001495728403279071367_"  style="overflow:visible;"/>
		</clipPath>
		
			<linearGradient id="SVGID_00000019641502976874073350000012944404806729194642_" gradientUnits="userSpaceOnUse" x1="2168.5552" y1="2901.6489" x2="2069.2151" y2="3441.2708">
			<stop  offset="0" style="stop-color:#0286CF"/>
			<stop  offset="1" style="stop-color:#51F4E9"/>
		</linearGradient>
		
			<rect x="2045.845" y="2796.636" style="clip-path:url(#SVGID_00000074416603656823866320000007776051719501054360_);fill:url(#SVGID_00000019641502976874073350000012944404806729194642_);" width="172.066" height="608.494"/>
	</g>
	<g>
		<defs>
			<path id="SVGID_00000074408543468896746530000008980683780097938056_" d="M2247.44,2293.019
				c-223.463,280.585-434.199,655.134-505.433,795.245l423.774-75.043c411.059-97.627,516.419-357.136,547.732-562.047
				c2.77-18.128,4.96-35.828,6.732-52.951c7.704-74.459,13.11-203.887,26.73-254.762c7.938-29.648,25.605-53.199,59.698-61.146
				c24.788-5.777,54.256-3.525,75.327,2.796c-28.693-49.661-92.7-72.836-92.7-72.836c-16.948-34.415-49.385-48.907-76.926-54.863
				c-98.015-21.195-221.979,65.531-348.872,200.546C2324.87,2199.064,2285.965,2244.644,2247.44,2293.019"/>
		</defs>
		<clipPath id="SVGID_00000087405493194242992120000005190922911614896273_">
			<use xlink:href="#SVGID_00000074408543468896746530000008980683780097938056_"  style="overflow:visible;"/>
		</clipPath>
		
			<linearGradient id="SVGID_00000087401007823360598300000001263322997516536454_" gradientUnits="userSpaceOnUse" x1="2466.7808" y1="2775.1648" x2="2047.9133" y2="2063.623">
			<stop  offset="0" style="stop-color:#0F0DB2"/>
			<stop  offset="1" style="stop-color:#EC2FD3"/>
		</linearGradient>
		
			<rect x="1742.007" y="1936.217" style="clip-path:url(#SVGID_00000087405493194242992120000005190922911614896273_);fill:url(#SVGID_00000087401007823360598300000001263322997516536454_);" width="1139.993" height="1152.047"/>
	</g>
	<defs>
		<filter id="Adobe_OpacityMaskFilter" filterUnits="userSpaceOnUse" x="1742.007" y="2451.174" width="971.506" height="637.09">
			<feColorMatrix  type="matrix" values="1 0 0 0 0  0 1 0 0 0  0 0 1 0 0  0 0 0 1 0"/>
		</filter>
	</defs>
	
		<mask maskUnits="userSpaceOnUse" x="1742.007" y="2451.174" width="971.506" height="637.09" id="SVGID_00000075846671381123663960000017769632942871196065_">
		<g style="filter:url(#Adobe_OpacityMaskFilter);">
			
				<linearGradient id="SVGID_00000094605160529126675630000013091730187846143892_" gradientUnits="userSpaceOnUse" x1="-52.446" y1="2665.6504" x2="9.3513" y2="3208.5947" gradientTransform="matrix(1 0 0 1 2232.9546 -311.0717)">
				<stop  offset="0" style="stop-color:#FFFFFF"/>
				<stop  offset="1" style="stop-color:#000000"/>
			</linearGradient>
			
				<rect x="1742.007" y="2451.174" style="fill:url(#SVGID_00000094605160529126675630000013091730187846143892_);" width="971.505" height="637.09"/>
		</g>
	</mask>
	<path style="mask:url(#SVGID_00000075846671381123663960000017769632942871196065_);fill-rule:evenodd;clip-rule:evenodd;" d="
		M1919.531,2773.086c-80.896,133.793-144.346,249.919-177.524,315.178l423.774-75.043
		c411.059-97.627,516.419-357.136,547.732-562.047C2713.513,2451.174,2495.209,2829.824,1919.531,2773.086"/>
	<path style="fill-rule:evenodd;clip-rule:evenodd;fill:#003780;" d="M1788.627,1286.122l-392.873-812.233
		c0,0-285.41,941.287,546.017,1336.627C1831.061,1539.503,1788.627,1286.122,1788.627,1286.122"/>
	<g>
		<defs>
			<path id="SVGID_00000008832593995917595420000011355418167780894142_" d="M1788.627,1286.122l-392.873-812.233
				c-14.018,266.753,35.9,816.745,456.748,1078.968C1807.395,1398.138,1788.627,1286.122,1788.627,1286.122"/>
		</defs>
		<clipPath id="SVGID_00000138531253570006156860000000776545326972054975_">
			<use xlink:href="#SVGID_00000008832593995917595420000011355418167780894142_"  style="overflow:visible;"/>
		</clipPath>
		
			<linearGradient id="SVGID_00000013190798270698283580000005149496943506817946_" gradientUnits="userSpaceOnUse" x1="1438.2053" y1="506.7078" x2="1723.5104" y2="1314.6602">
			<stop  offset="0" style="stop-color:#FFCE4B"/>
			<stop  offset="1" style="stop-color:#F452CB"/>
		</linearGradient>
		
			<rect x="1381.736" y="473.889" style="clip-path:url(#SVGID_00000138531253570006156860000000776545326972054975_);fill:url(#SVGID_00000013190798270698283580000005149496943506817946_);" width="470.766" height="1078.968"/>
	</g>
	<path style="fill-rule:evenodd;clip-rule:evenodd;fill:#003780;" d="M1875.919,1664.406l-733.471-525.444
		c0,0,180.445,870.78,988.498,912.989c-47.317-75.397-87.919-156.268-122.478-236.561
		C1925.338,1727.475,1875.919,1664.406,1875.919,1664.406"/>
	<g>
		<defs>
			<path id="SVGID_00000104688750861587202120000005013432068982002876_" d="M1875.919,1664.406l-733.471-525.444
				c113.021,236.297,410.31,682.325,888.546,726.923c-7.78-16.823-15.286-33.677-22.53-50.505
				C1925.337,1727.47,1875.919,1664.406,1875.919,1664.406"/>
		</defs>
		<clipPath id="SVGID_00000065069258978872637820000009895630892946090167_">
			<use xlink:href="#SVGID_00000104688750861587202120000005013432068982002876_"  style="overflow:visible;"/>
		</clipPath>
		
			<linearGradient id="SVGID_00000173129252450318739380000004785282667226771349_" gradientUnits="userSpaceOnUse" x1="1237.167" y1="1228.1178" x2="1868.6981" y2="1723.7021">
			<stop  offset="0" style="stop-color:#F452CB"/>
			<stop  offset="1" style="stop-color:#0928D8"/>
		</linearGradient>
		
			<rect x="1142.447" y="1138.962" style="clip-path:url(#SVGID_00000065069258978872637820000009895630892946090167_);fill:url(#SVGID_00000173129252450318739380000004785282667226771349_);" width="888.546" height="726.923"/>
	</g>
	<path style="fill-rule:evenodd;clip-rule:evenodd;fill:#003780;" d="M1990.52,1915.385l-869.546-240.753
		c0,0,426.44,686.599,1136.128,543.965c-67.911-73.031-126.04-159.969-175.432-251.314
		C2024.13,1936.207,1990.52,1915.385,1990.52,1915.385"/>
	<g>
		<defs>
			<path id="SVGID_00000121268143153602688250000000007111158114989982_" d="M1990.52,1915.385l-869.546-240.753
				c178.59,174.261,579.704,469.63,1018.728,391.083c-20.559-31.904-39.886-64.874-58.036-98.439
				C2024.13,1936.204,1990.52,1915.385,1990.52,1915.385"/>
		</defs>
		<clipPath id="SVGID_00000163771160174993858640000016544045426020176531_">
			<use xlink:href="#SVGID_00000121268143153602688250000000007111158114989982_"  style="overflow:visible;"/>
		</clipPath>
		
			<linearGradient id="SVGID_00000137838947316357098810000010417729374248953236_" gradientUnits="userSpaceOnUse" x1="1178.8279" y1="1840.1957" x2="2079.9585" y2="1978.4083">
			<stop  offset="0" style="stop-color:#4EEB90"/>
			<stop  offset="1" style="stop-color:#00478F"/>
		</linearGradient>
		
			<rect x="1120.974" y="1674.632" style="clip-path:url(#SVGID_00000163771160174993858640000016544045426020176531_);fill:url(#SVGID_00000137838947316357098810000010417729374248953236_);" width="1018.729" height="469.629"/>
	</g>
	<path style="fill-rule:evenodd;clip-rule:evenodd;fill:#003780;" d="M2098.1,2101.435l-900.521,55.977
		c0,0,588.256,478.349,1192.573,175.591c-32.324-21.373-62.951-45.945-91.948-73.091c-45.323-42.431-86.661-91.158-124.287-143.773
		C2125.964,2107.735,2098.1,2101.435,2098.1,2101.435"/>
	<g>
		<defs>
			<path id="SVGID_00000038390048714130890820000011227825020119642007_" d="M2098.1,2101.435l-900.521,55.977
				c218.825,103.271,672.617,246.002,1054.994,56.277c-27.858-30.406-54.053-63.146-78.658-97.552
				C2125.949,2107.733,2098.1,2101.435,2098.1,2101.435"/>
		</defs>
		<clipPath id="SVGID_00000012440716236808732890000014595167170874752156_">
			<use xlink:href="#SVGID_00000038390048714130890820000011227825020119642007_"  style="overflow:visible;"/>
		</clipPath>
		
			<linearGradient id="SVGID_00000109721108245606714480000002827969006498779819_" gradientUnits="userSpaceOnUse" x1="2232.8655" y1="2249.5505" x2="1288.2701" y2="2254.897">
			<stop  offset="0" style="stop-color:#008A80"/>
			<stop  offset="1" style="stop-color:#AFF022"/>
		</linearGradient>
		
			<rect x="1197.579" y="2101.435" style="clip-path:url(#SVGID_00000012440716236808732890000014595167170874752156_);fill:url(#SVGID_00000109721108245606714480000002827969006498779819_);" width="1054.995" height="301.979"/>
	</g>
	<path style="fill-rule:evenodd;clip-rule:evenodd;fill:#003780;" d="M2275.097,2237.386l-688.448,275.066
		c0,0,541.178,206.574,951.527-109.612c-90.168-26.679-169.837-77.27-239.972-142.928
		C2290.383,2252.589,2282.685,2245.071,2275.097,2237.386"/>
	<g>
		<defs>
			<path id="SVGID_00000096769120754587767750000011692842618518391936_" d="M2275.097,2237.386l-688.448,275.066
				c189.508,23.41,548.044,20.95,809.745-175.379c-34.63-22.303-67.333-48.274-98.19-77.162
				C2290.383,2252.589,2282.685,2245.071,2275.097,2237.386"/>
		</defs>
		<clipPath id="SVGID_00000033335310203282149480000006822338296984094636_">
			<use xlink:href="#SVGID_00000096769120754587767750000011692842618518391936_"  style="overflow:visible;"/>
		</clipPath>
		
			<linearGradient id="SVGID_00000182488636301184463310000010783392540304502193_" gradientUnits="userSpaceOnUse" x1="2424.9094" y1="2324.7119" x2="1517.4669" y2="2454.3467">
			<stop  offset="0" style="stop-color:#0286CF"/>
			<stop  offset="1" style="stop-color:#51F4E9"/>
		</linearGradient>
		
			<rect x="1586.65" y="2237.386" style="clip-path:url(#SVGID_00000033335310203282149480000006822338296984094636_);fill:url(#SVGID_00000182488636301184463310000010783392540304502193_);" width="809.745" height="298.476"/>
	</g>
	<path style="fill-rule:evenodd;clip-rule:evenodd;fill:#003780;" d="M2415.377,2348.807l-398.303,366.952
		c0,0,426.645,0.103,691.707-292.498C2598.7,2428.186,2501.292,2399.757,2415.377,2348.807"/>
	<g>
		<defs>
			<path id="SVGID_00000003800644862816288050000007227272387567180680_" d="M2415.377,2348.807l-398.303,366.952
				c142.934-35.195,382.978-125.516,549.62-305.362C2512.695,2397.769,2462.323,2376.647,2415.377,2348.807"/>
		</defs>
		<clipPath id="SVGID_00000167398304111187929400000005407654747722063540_">
			<use xlink:href="#SVGID_00000003800644862816288050000007227272387567180680_"  style="overflow:visible;"/>
		</clipPath>
		
			<linearGradient id="SVGID_00000027592292699244252050000009622151749730415755_" gradientUnits="userSpaceOnUse" x1="2685.5137" y1="2314.04" x2="1955.9087" y2="2718.5601">
			<stop  offset="0" style="stop-color:#0286CF"/>
			<stop  offset="1" style="stop-color:#51F4E9"/>
		</linearGradient>
		
			<rect x="2017.074" y="2348.807" style="clip-path:url(#SVGID_00000167398304111187929400000005407654747722063540_);fill:url(#SVGID_00000027592292699244252050000009622151749730415755_);" width="549.62" height="366.952"/>
	</g>
	<g>
		<defs>
			<path id="SVGID_00000028308578925112503650000014086225703360668821_" d="M2363.502,2157.958
				c-168.664-90.525-373.847-325.648-574.875-871.837c0,0,42.434,253.381,153.144,524.394
				c71.285,174.5,170.874,356.311,305.669,482.502c123.853,115.948,277.426,184.939,466.073,158.156
				c2.77-18.128,4.96-35.828,6.732-52.951c7.704-74.459,13.11-203.887,26.73-254.762
				C2746.974,2143.462,2587.423,2278.141,2363.502,2157.958"/>
		</defs>
		<clipPath id="SVGID_00000073689049180305348930000015362383555111046588_">
			<use xlink:href="#SVGID_00000028308578925112503650000014086225703360668821_"  style="overflow:visible;"/>
		</clipPath>
		
			<linearGradient id="SVGID_00000016778356651923628310000010936321015573425070_" gradientUnits="userSpaceOnUse" x1="2583.9646" y1="2493.6353" x2="2026.1594" y2="1414.6038">
			<stop  offset="0" style="stop-color:#0012AF"/>
			<stop  offset="1" style="stop-color:#DA34C4"/>
		</linearGradient>
		
			<rect x="1788.627" y="1286.122" style="clip-path:url(#SVGID_00000073689049180305348930000015362383555111046588_);fill:url(#SVGID_00000016778356651923628310000010936321015573425070_);" width="958.347" height="1191.836"/>
	</g>
	<defs>
		
			<filter id="Adobe_OpacityMaskFilter_00000150824743313838959440000010499574274507981456_" filterUnits="userSpaceOnUse" x="2363.502" y="1954.231" width="425.798" height="203.727">
			<feColorMatrix  type="matrix" values="1 0 0 0 0  0 1 0 0 0  0 0 1 0 0  0 0 0 1 0"/>
		</filter>
	</defs>
	
		<mask maskUnits="userSpaceOnUse" x="2363.502" y="1954.231" width="425.798" height="203.727" id="SVGID_00000077310158739227576170000005606383869820338615_">
		<g style="filter:url(#Adobe_OpacityMaskFilter_00000150824743313838959440000010499574274507981456_);">
			
				<linearGradient id="SVGID_00000023973108744375544430000010297206643325450394_" gradientUnits="userSpaceOnUse" x1="115.0234" y1="2487.0901" x2="153.4726" y2="2806.2834" gradientTransform="matrix(1 0 0 1 2438.7214 -619.0807)">
				<stop  offset="0" style="stop-color:#FFFFFF"/>
				<stop  offset="1" style="stop-color:#000000"/>
			</linearGradient>
			
				<rect x="2363.502" y="1954.23" style="fill:url(#SVGID_00000023973108744375544430000010297206643325450394_);" width="425.798" height="203.728"/>
		</g>
	</mask>
	
		<path style="mask:url(#SVGID_00000077310158739227576170000005606383869820338615_);fill-rule:evenodd;clip-rule:evenodd;fill:#FCE2A6;" d="
		M2363.502,2157.958c244.944-205.241,425.798-145.683,425.798-145.683c-16.948-34.415-49.385-48.907-76.926-54.863
		C2614.359,1936.217,2490.395,2022.943,2363.502,2157.958"/>
</g>
</svg>
